<?xml version="1.0" encoding="UTF-8"?><svg id="banana-w" xmlns="http://www.w3.org/2000/svg" width="384" height="384" viewBox="0 0 384 384"><path d="M284.45,193.12c26.41,1.72,46.8,18.59,53.68,44.01,9.99,36.9-6.77,72.6-1.07,109.6,1.13,7.31,6.29,19.34,2.67,25.56-5.98,10.25-20.42,3.9-28.35-.62-31.92-18.23-23.56-62.94-30.69-93.2l-10.34,25.95c-11.32,24.51-34.82,59.03-60.26,69.99-8.62,3.71-17.61,5.9-25.22-1.24-9.04-8.48-3.98-21.78-1.11-31.82,4.04-14.13,10.01-27.72,13.84-41.92-31.26,23.04-69.2,38.28-108.16,41.91-14.45,1.35-45.36,3.48-47.53-16.83-2.25-20.98,1.33-32.53,14.96-47.93,25.98-29.36,62.41-51.24,86.4-82.77,3.87-5.09,9.22-10.81,4.86-17.43-3.59-5.47-11.66,3.07-14.9,5.9-12.66,11.03-23.06,23.12-38.15,31.47-9.29,5.13-32.49,15.02-39.58,2.87s10.26-26.48,16.65-35.53c9.68-13.71,9.51-21.5,14.67-36.23,10.98-31.35,44.64-54.22,76.59-35.4,16.78,9.88,21.17,24.64,26.01,42.11.18.67.41,2.21,1.46,1.54,8.19-11.03,15.51-24.2,18.35-37.8,5.76-27.64-3.22-58.7,3.26-86.56,8.18-35.17,43.65-22.66,61.12-2.53,35.79,41.24,30.05,119.22,10.85,166.93ZM274.7,184.89c16.21-42.16,21.44-113.11-9.34-149.71-7.76-9.23-31.66-26.54-39.45-9.49-7.88,17.26-1.74,56.27-2.82,76.52-1.13,21.3-9.76,41.2-22.49,57.97,27.72-10.31,57.18,1.76,74.1,24.71ZM175.9,146.71c-5.87-24.78-30.43-40.88-54.39-27.07-27.08,15.61-22.57,43.77-38.56,66.98-2.01,2.92-18.63,21.85-17.07,23.72,12.04-3.24,19.84-13.33,26.8-22.97,14.84-20.55,30.81-58.64,61.7-54.69,9.47,1.21,15.69,7.01,21.52,14.03ZM173.66,198.36c.99-17.21-.89-55.83-25.82-53.89-11.78.92-21.61,14.09-27.94,22.96l-15.1,24.19c10.63-5.86,25.94-28.06,37.79-29.19,9.72-.93,16.09,5.03,18.13,14.06,2.69,11.85-.31,14.42-6.98,23.29-21.67,28.85-52.15,49.33-77.79,74.16-2.62,2.54-23.45,24.23-20.57,26.96l15.91,4.37c22.21-15.36,42.74-32.97,62.31-51.51l7.8,9.24c-19.89,18.41-40.37,36.44-62.87,51.7l-2.19,15.39c40.18-1.49,79.67-15.29,112.2-38.63,3.69-2.65,13.36-9.52,15.82-12.62,7.27-9.18,9.1-41.49,7.26-52.96-1.7-10.6-9.02-27.53-21.87-27.53h-16.09ZM199.11,365.28c14.91-4.04,27.9-17.09,37.41-28.83,27.56-34.05,53.4-100.01,29.82-141.31-9.57-16.75-29.23-28.23-48.79-26.62-2.61.22-7.82.85-9.45,2.89,40.13,8.76,48.35,49.69,40.66,85.2-8.24,38.03-30.34,75.35-49.64,108.67ZM195.36,348.81c15-28.25,32.2-57.65,40.22-88.91,8.71-33.98,4.87-72.36-36.29-78.55-5.23-.79-14.57-2.87-13.65,5.04,41.85,1.2,42.73,51.32,35.13,81.91-6.43,25.88-19.89,52.05-25.81,77.49-.18.76-1.07,3.14.4,3.03ZM325.61,352.56c-.55-8.42-2.34-17.41-2.27-25.85.14-17.77,5.29-36.66,6.05-54.58,1.36-32.06-8.98-64.4-45.69-67.02,2.7,10.3,3.75,20.78,4.11,31.44,6.7,4.43,13.38,8.97,18.33,15.35,21.12,27.24,3.49,60.88,15.2,91.09l4.27,9.57ZM315.13,359.29c-6.19-12.9-9.81-27.17-10.51-41.5-.96-19.49,5.18-38.77-6.39-56.48-1.18-1.8-10.45-12.47-12.28-10.54l-1.52,11.56c21.07,24.5,2.38,73.98,28.09,95.48.84.7,1.22,1.82,2.62,1.49ZM53.89,312.89v11.6c2.38,2.8,5.98,4.6,9.68,4.83,4.55-11.07,2.78-15.92-9.68-16.44Z" fill="#fff"/><path d="M174.93,212.66c2.44-.64,7.07,6.41,8.41,8.43l-17.44,16.89c-1.45-2.25-8.54-5.88-7.88-8.4l16.91-16.91Z" fill="#fff"/></svg>