<?xml version="1.0" encoding="UTF-8"?><svg id="banana-w" xmlns="http://www.w3.org/2000/svg" width="384" height="384" viewBox="0 0 384 384"><path d="M0,238.04c2.4-8.12,11.06-13.3,18.02-17.53,27.76-16.87,50.66-17.27,80.79-24,53.39-11.93,71.54-57.18,105.15-93.21,16.78-17.99,45.09-31.27,35.77-61.2-2.28-7.33-9.1-12.69-3.2-20.75,8.48-11.58,48.37-21.8,56.77-7.38,3.02,5.18.49,7.36.89,11.77.8,8.9,15.43,31.98,21.7,39,10.9,12.19,23.11,13.89,34.76,23.62,59.67,49.85,26.88,178.25-12.78,232.69-25.51,35.03-67.09,55.94-110.67,57-13.77.34-20.01-2.07-27.22-14.01-3.94-6.53-4.09-10.44-.89-17.46-26.85,13.78-57.86,15.97-86.82,7.86-15.43-4.32-36.74-12.99-33.64-32.89,1.12-7.19,17-20.49,21.66-26.61-34.92,3.08-73.29-11.83-97.19-37.18l-3.11-8.49v-11.23ZM280.71,36.67c-1.48-1.44,6.55-7.29,7.79-9.04,4.14-5.82,4.4-12.67-2.79-15.79-9.94-4.32-34.55,1.24-43.11,8.06-10.11,8.06-2.22,12.93.47,21.85,9.64,32.01-22.74,48.19-40.59,68.27-27.51,30.93-46.53,69.63-87.76,85.15-18.57,6.99-38.67,7.2-57.82,12.54-17.05,4.75-34.04,12.18-47.91,23.21,6.36,2.94,6.79,11.03,5.91,17.14-.29,1.99-1.11,5.4-3.67,3.81.61-4.22,2.08-17.67-4.25-18.23-5.9-.52-3.48,18.8-.57,23.05,7.77,11.32,35.28,25.17,48.39,29.46,11.31,3.69,40.24,9.13,50.74,4.65,5.05-2.15,14.63-10.78,20.94-14.24,12.02-6.59,25.62-9.68,37.08-16.81,39.22-24.39,52.94-88.49,72.09-128.52,7.67-16.04,23.03-34.07,24.08-51.53.16-2.69-1.41-15.64-.73-16.08.42-.28,2.25-.1,2.63.73,2.93,13.88.94,26.11-5.77,38.42-5.76,10.56-12.37,19.73-17.71,30.94-22.44,47.11-32.89,112.28-85.45,135.37-23.3,10.24-51.77,22.65-65.85,45.68-.36.59-1.09.67-.76,1.86,5.71-1.35,11.93,13.75,10.12,16.49-3.38,2.29-3.71-4.67-4.75-7.25-3.53-8.77-11.29-9.18-9.52,2.04,1.99,12.63,13.55,17.52,24.39,21.26,30.87,10.66,67.61,8.66,95.68-8.3,6.72-14.06,13.82-28.09,22.69-40.93,12.43-17.99,29.98-31.08,40.41-50.16,22.63-41.39,10.22-87.51,22.7-130.75,2.24-7.77,6.02-14.96,7.81-22.88-.11-1.81-7.91-8.26-9.66-10.45-7.76-9.67-8.5-19.82-9.39-31.78l-16.49-11.22c-.07-4.13,3.18-1.65,5.66-.41,12.85,6.42,27.71,20.83,31.81,34.81,5.7,19.46-3.2,29.41-7.65,47-9.39,37.08-1.57,76.83-15.36,113.39-10.92,28.94-32.33,42.38-48.65,66.62-8.94,13.28-16.13,27.67-23.02,42.09,7.64,2.75,14.19,8.8,17.2,16.44-3.12,3.61-4.36-2.51-6.34-4.86-9.24-11.01-19.43-9.42-10.74,4.75,7.93,12.95,15.27,12.5,29.47,11.77,33.6-1.73,69.09-17.39,92.05-41.94,45.55-48.7,78.29-171.93,35.85-229-9.96-13.39-17.52-15.88-31.03-23.61-18.04-10.32-30.59-31.47-37.4-50.56-3.85,2.34-5.96,8.03-11.22,7.48ZM296.41,90.57c-.44-12.74-5.88-24.81-15.7-32.94-.77,12.79,4.63,26.03,15.7,32.94Z" fill="#fff"/><path d="M315.88,135.49c-1.75,38.79,5.35,79.31-8.22,116.41-8.71,23.82-25.57,47.31-42.66,65.88-2.65,2.88-22.7,23.15-24.34,22.81l-1.02-2.49c29.3-27.34,59.62-61.27,69.28-101.4,5.57-23.15,2.66-48.6,3.18-72.42.17-7.58-.07-19.16.74-26.21.25-2.2.62-2.87,3.03-2.58Z" fill="#fff"/><path d="M267.61,149.71c2.19-.51,1.76,2.53,1.54,3.77-1.98,10.92-12.03,32.16-17,42.9-23.6,50.98-51.64,91.62-104.18,115.89-4.6,2.12-13.02,6.1-17.69,7.03-1.03.21-2.03.71-3.04-.04-1.07-.91-1.09-1.35.04-2.23,1.82-1.42,9.54-3.48,12.45-4.76,65.54-28.86,95.41-79.32,120.57-143.66,1.06-2.72,6.06-18.61,7.31-18.9Z" fill="#fff"/><path d="M39.67,238.79c34.01-6.98,68.17-16.47,98.56-33.57,30.45-17.13,53.27-44.12,76.35-69.63.85-.51,2.34.34,2.49,1.02.6,2.83-34.15,38.21-38.91,42.67-38.4,35.91-85.6,52.66-136.69,62.46l-1.45-.69-.35-2.26Z" fill="#fff"/></svg>